<svg width="34" height="34" viewBox="0 0 34 34" fill="none" xmlns="http://www.w3.org/2000/svg">
<circle cx="17" cy="17" r="16.75" fill="#EAF5FF" stroke="#E2E8F0" stroke-width="0.5"/>
<g clipPath="url(#clip0_659_1205)">
<path d="M16.9961 18.8807C17.2226 18.8807 17.4062 18.6971 17.4062 18.4706C17.4062 18.244 17.2226 18.0604 16.9961 18.0604C16.7696 18.0604 16.5859 18.244 16.5859 18.4706C16.5859 18.6971 16.7696 18.8807 16.9961 18.8807Z" stroke="#14161A" stroke-width="0.5" strokeMiterlimit="10" strokeLinecap="round" strokeLinejoin="round"/>
<path d="M18.1092 14.1639C18.2534 14.3641 18.3453 14.6034 18.3637 14.8599C18.3999 15.3649 18.1571 15.8471 17.7302 16.1184C17.5269 16.2476 17.4056 16.4591 17.4056 16.6842V16.9272C17.4056 17.1537 17.2219 17.3373 16.9954 17.3373C16.7689 17.3373 16.5853 17.1537 16.5853 16.9272V16.6842C16.5853 16.1769 16.8488 15.7065 17.2902 15.426C17.4622 15.3167 17.56 15.1222 17.5454 14.9185C17.5266 14.655 17.3147 14.437 17.0527 14.4112C16.7555 14.3821 16.4902 14.589 16.4492 14.8825C16.4179 15.1068 16.2106 15.2632 15.9863 15.232C15.762 15.2007 15.6055 14.9934 15.6368 14.7691C15.7388 14.0382 16.3959 13.5219 17.1329 13.5948C17.2013 13.6015 17.2683 13.6135 17.3335 13.6302" stroke="#14161A" stroke-width="0.5" strokeMiterlimit="10" strokeLinecap="round" strokeLinejoin="round"/>
<path d="M13.3003 12.3139C12.9131 12.9618 12.6912 13.7184 12.6934 14.5239C12.6968 15.7735 13.2326 16.8978 14.0857 17.6822C14.717 18.2627 15.086 19.074 15.086 19.9316V20.3223" stroke="#14161A" stroke-width="0.5" strokeMiterlimit="10" strokeLinecap="round" strokeLinejoin="round"/>
<path d="M20.0682 17.5332C20.8339 16.7558 21.3063 15.689 21.3063 14.5117C21.3063 12.1221 19.3602 10.1871 16.9664 10.2052C15.7536 10.2144 14.6574 10.7308 13.8789 11.551" stroke="#14161A" stroke-width="0.5" strokeMiterlimit="10" strokeLinecap="round" strokeLinejoin="round"/>
<path d="M18.9141 20.3222V19.9316C18.9141 19.3259 19.093 18.7375 19.4245 18.2434" stroke="#14161A" stroke-width="0.5" strokeMiterlimit="10" strokeLinecap="round" strokeLinejoin="round"/>
<path d="M17 12.5645V12.0176" stroke="#14161A" stroke-width="0.5" strokeMiterlimit="10" strokeLinecap="round" strokeLinejoin="round"/>
<path d="M18.2051 12.8918L18.6415 12.1358" stroke="#14161A" stroke-width="0.5" strokeMiterlimit="10" strokeLinecap="round" strokeLinejoin="round"/>
<path d="M19.0859 13.7732L19.4961 13.5364" stroke="#14161A" stroke-width="0.5" strokeMiterlimit="10" strokeLinecap="round" strokeLinejoin="round"/>
<path d="M19.4082 14.9766H20.2812" stroke="#14161A" stroke-width="0.5" strokeMiterlimit="10" strokeLinecap="round" strokeLinejoin="round"/>
<path d="M15.7978 12.8918L15.3613 12.1358" stroke="#14161A" stroke-width="0.5" strokeMiterlimit="10" strokeLinecap="round" strokeLinejoin="round"/>
<path d="M14.9062 13.7671L14.4961 13.5303" stroke="#14161A" stroke-width="0.5" strokeMiterlimit="10" strokeLinecap="round" strokeLinejoin="round"/>
<path d="M14.5937 14.9766H13.7207" stroke="#14161A" stroke-width="0.5" strokeMiterlimit="10" strokeLinecap="round" strokeLinejoin="round"/>
<path d="M16.2344 21.7168H14.9415C14.7948 21.7168 14.6758 21.5978 14.6758 21.4511V20.6154C14.6758 20.4686 14.7948 20.3496 14.9415 20.3496H19.0585C19.2052 20.3496 19.3242 20.4686 19.3242 20.6154V21.4511C19.3242 21.5978 19.2052 21.7168 19.0585 21.7168H17.1914" stroke="#14161A" stroke-width="0.5" strokeMiterlimit="10" strokeLinecap="round" strokeLinejoin="round"/>
<path d="M18.9141 21.7441V22.2637C18.9141 22.4147 18.7916 22.5371 18.6406 22.5371H15.3594C15.2084 22.5371 15.0859 22.4147 15.0859 22.2637V21.7441" stroke="#14161A" stroke-width="0.5" strokeMiterlimit="10" strokeLinecap="round" strokeLinejoin="round"/>
<path d="M18.5039 22.5645V23.5081C18.5039 23.6665 18.3755 23.7949 18.2171 23.7949H15.7829C15.6245 23.7949 15.4961 23.6665 15.4961 23.5081V22.5645" stroke="#14161A" stroke-width="0.5" strokeMiterlimit="10" strokeLinecap="round" strokeLinejoin="round"/>
<path d="M17 23.7949V23.3574" stroke="#14161A" stroke-width="0.5" strokeMiterlimit="10" strokeLinecap="round" strokeLinejoin="round"/>
<path d="M17.752 23.7949V23.3574" stroke="#14161A" stroke-width="0.5" strokeMiterlimit="10" strokeLinecap="round" strokeLinejoin="round"/>
<path d="M16.248 23.7949V23.3574" stroke="#14161A" stroke-width="0.5" strokeMiterlimit="10" strokeLinecap="round" strokeLinejoin="round"/>
</g>
<defs>
<clipPath id="clip0_659_1205">
<rect width="14" height="14" fill="white" transform="translate(10 10)"/>
</clipPath>
</defs>
</svg>
